<svg xmlns="http://www.w3.org/2000/svg" width="800" height="400" viewBox="0 0 800 400">
  <!-- Фон -->
  <rect width="800" height="400" fill="#2c3e50" rx="10" ry="10"/>
  
  <!-- Декоративные элементы фона -->
  <circle cx="100" cy="100" r="80" fill="#34495e"/>
  <circle cx="700" cy="300" r="100" fill="#34495e"/>
  <circle cx="400" cy="50" r="30" fill="#34495e"/>
  
  <!-- Главный текст -->
  <text x="400" y="150" font-family="Arial, sans-serif" font-size="48" text-anchor="middle" fill="#ecf0f1" font-weight="bold">Программа "Ментор МГПУ"</text>
  <text x="400" y="200" font-family="Arial, sans-serif" font-size="24" text-anchor="middle" fill="#ecf0f1">Развиваем будущих педагогов</text>
  
  <!-- Силуэты людей -->
  <!-- Наставник -->
  <circle cx="300" cy="300" r="30" fill="#3498db"/>
  <rect x="285" y="330" width="30" height="70" fill="#3498db"/>
  <line x1="285" y1="350" x2="260" y2="380" stroke="#3498db" stroke-width="10" stroke-linecap="round"/>
  <line x1="315" y1="350" x2="340" y2="380" stroke="#3498db" stroke-width="10" stroke-linecap="round"/>
  
  <!-- Ученик -->
  <circle cx="500" cy="320" r="20" fill="#e74c3c"/>
  <rect x="490" y="340" width="20" height="50" fill="#e74c3c"/>
  <line x1="490" y1="355" x2="470" y2="375" stroke="#e74c3c" stroke-width="7" stroke-linecap="round"/>
  <line x1="510" y1="355" x2="530" y2="375" stroke="#e74c3c" stroke-width="7" stroke-linecap="round"/>
  
  <!-- Стрелка взаимодействия -->
  <path d="M340 300 Q 400 270 470 320" stroke="#2ecc71" stroke-width="5" stroke-dasharray="10,5" fill="none"/>
  <polygon points="460,320 480,320 470,340" fill="#2ecc71"/>
</svg> 